<?xml version="1.0" standalone="no"?><!DOCTYPE svg PUBLIC "-//W3C//DTD SVG 1.1//EN" "http://www.w3.org/Graphics/SVG/1.1/DTD/svg11.dtd"><svg t="1625708087200" class="icon" viewBox="0 0 1024 1024" version="1.1" xmlns="http://www.w3.org/2000/svg" p-id="2426" xmlns:xlink="http://www.w3.org/1999/xlink" width="200" height="200"><defs><style type="text/css"></style></defs><path d="M518.59456 822.6816c18.47296 0 34.6112-16.15872 34.6112-34.63168s-16.1792-34.63168-34.6112-34.63168-34.63168 16.15872-34.63168 34.63168c0 18.45248 16.15872 34.63168 34.63168 34.63168z m173.11744-669.47072H345.45664a92.63104 92.63104 0 0 0-92.34432 92.34432v553.984c0 50.7904 41.55392 92.3648 92.34432 92.3648h346.27584a92.63104 92.63104 0 0 0 92.34432-92.3648V245.5552a92.65152 92.65152 0 0 0-92.3648-92.34432z m46.16192 646.3488a46.26432 46.26432 0 0 1-46.16192 46.16192H345.45664a46.26432 46.26432 0 0 1-46.16192-46.16192v-69.2224H737.8944v69.2224z m0-115.42528H299.27424V314.79808h438.59968v369.33632z m0-415.51872H299.27424v-23.04a46.2848 46.2848 0 0 1 46.16192-46.1824h346.27584a46.2848 46.2848 0 0 1 46.16192 46.1824v23.04z m0 0" p-id="2427"></path></svg>